<svg width="40" height="32" viewBox="0 0 40 32" fill="none" xmlns="http://www.w3.org/2000/svg">
<path d="M0 32V21.2941C0 17.2941 0.716418 13.6079 2.14925 10.2353C3.58209 6.86275 6.00995 3.45098 9.43284 0L15.6418 4.82353C13.6517 6.78432 12.1393 8.62746 11.1045 10.3529C10.0697 12.0784 9.39303 13.8431 9.07463 15.6471H16.7164V32H0ZM23.2836 32V21.2941C23.2836 17.2941 24 13.6079 25.4328 10.2353C26.8657 6.86275 29.2935 3.45098 32.7164 0L38.9254 4.82353C36.9353 6.78432 35.4229 8.62746 34.3881 10.3529C33.3532 12.0784 32.6766 13.8431 32.3582 15.6471H40V32H23.2836Z" fill="#E9E9E9"/>
</svg>
